<svg width="512" height="512" viewBox="0 0 512 512" fill="none" xmlns="http://www.w3.org/2000/svg">
<path d="M248 8C111 8 0 119 0 256C0 393 111 504 248 504C385 504 496 393 496 256C496 119 385 8 248 8ZM369.6 321.1C374.3 325.8 374.3 333.4 369.6 338.1L330 377.6C325.3 382.3 317.7 382.3 313 377.6L248 312L182.9 377.6C178.2 382.3 170.6 382.3 165.9 377.6L126.4 338C121.7 333.3 121.7 325.7 126.4 321L192 256L126.4 190.9C121.7 186.2 121.7 178.6 126.4 173.9L166 134.3C170.7 129.6 178.3 129.6 183 134.3L248 200L313.1 134.4C317.8 129.7 325.4 129.7 330.1 134.4L369.7 174C374.4 178.7 374.4 186.3 369.7 191L304 256L369.6 321.1Z" fill="#430F13"/>
</svg>
