<?xml version="1.0" encoding="utf-8"?>
<!-- Generator: Adobe Illustrator 25.2.0, SVG Export Plug-In . SVG Version: 6.00 Build 0)  -->
<svg version="1.1" xmlns="http://www.w3.org/2000/svg" xmlns:xlink="http://www.w3.org/1999/xlink" x="0px" y="0px"
	 viewBox="0 0 326.82 226.63" style="enable-background:new 0 0 326.82 226.63;" xml:space="preserve">
<style type="text/css">
	.st0{fill:#FFFFFF;}
	.st1{fill:#DFF2FD;}
	.st2{fill:#E32126;}
	.st3{fill:#1F89CA;}
</style>
<g>
	<path class="st0" d="M268.32,192.97H51.75c-7.37,0-13.34-6.08-13.34-13.58V49.23c0-7.5,5.97-13.58,13.34-13.58h216.57
		c7.37,0,13.34,6.08,13.34,13.58v130.16C281.66,186.89,275.69,192.97,268.32,192.97L268.32,192.97z"/>
	<path class="st1" d="M38.41,49.23v110.3l188.24,23.11c7.31,0.9,13.98-4.41,14.89-11.85L257.41,41.6c0.26-2.08-0.01-4.09-0.62-5.95
		H51.75C44.38,35.65,38.41,41.73,38.41,49.23L38.41,49.23z"/>
	<path class="st2" d="M326.74,189.02l-13.6-129.45c-0.78-7.46-7.36-12.88-14.68-12.11l-16.79,1.77v0v130.16
		c0,7.5-5.97,13.58-13.34,13.58H82.56l2.26,21.48c0.78,7.46,7.36,12.88,14.68,12.11l215.39-22.64
		C322.22,203.15,327.52,196.48,326.74,189.02L326.74,189.02z"/>
	<path class="st2" d="M38.4,49.23c0-7.5,5.97-13.58,13.34-13.58h205.03c-1.57-4.8-5.72-8.51-10.99-9.15L30.86,0.1
		c-7.31-0.9-13.98,4.41-14.89,11.85L0.1,141.15c-0.91,7.44,4.27,14.21,11.58,15.1l26.72,3.28V49.23L38.4,49.23z"/>
</g>
</svg>
