<?xml version="1.0" encoding="utf-8"?>
<!-- Generator: Adobe Illustrator 27.7.0, SVG Export Plug-In . SVG Version: 6.00 Build 0)  -->
<svg version="1.1" id="Layer_1" xmlns="http://www.w3.org/2000/svg" xmlns:xlink="http://www.w3.org/1999/xlink" x="0px" y="0px"
	 viewBox="0 0 100 100" style="enable-background:new 0 0 100 100;" xml:space="preserve">
<g>
	<path d="M47.8,50.9c1.3,0.8,3,0.8,4.3,0l47.4-29c-1.1-3.4-4.3-5.8-8-5.8H8.5c-3.5,0-6.6,2.2-7.8,5.2L47.8,50.9z"/>
	<path d="M56.8,58.6c-2.1,1.3-4.5,1.9-6.8,1.9c-2.4,0-4.8-0.7-6.9-2L0,31.6v42.3c0,4.7,3.8,8.5,8.5,8.5h83.1c4.7,0,8.5-3.8,8.5-8.5
		V32.2L56.8,58.6z"/>
</g>
</svg>
