<?xml version="1.0" encoding="utf-8"?>
<!-- Generator: Adobe Illustrator 27.7.0, SVG Export Plug-In . SVG Version: 6.00 Build 0)  -->
<svg version="1.1" id="Layer_1" xmlns="http://www.w3.org/2000/svg" xmlns:xlink="http://www.w3.org/1999/xlink" x="0px" y="0px"
	 viewBox="0 0 100 100" style="enable-background:new 0 0 100 100;" xml:space="preserve">
<g>
	<path d="M87.5,54c-7.4-4.3-15.9-6.7-24.5-6.9c-6.7,0.1-13.2,1.6-19.3,4.3c-0.1,0-0.1,0-0.2,0.1c-2.2-0.3-4.4-0.5-6.6-0.5
		c-8.6,0.2-17,2.6-24.5,6.9c-5.3,3-8.6,8.7-8.5,14.7v2.1c-0.1,5.2,4.1,9.5,9.2,9.6l47.5,0c3,0,5.7-1.5,7.4-3.9h18.6
		c5.2-0.1,9.3-4.4,9.2-9.5v-2.1C96.1,62.7,92.8,57,87.5,54z M40.8,56.7c0.8,0.1,1.6,0.2,2.5,0.3c0.2,0.2,0.4,0.3,0.6,0.3
		c0.1,0,0.3,0,0.4-0.1c5.1,1.1,10,2.9,14.5,5.4c3.6,2,5.7,5.8,5.7,9.9l0,2c0,0.3-0.1,0.6-0.2,0.9c-0.1,0.6-0.3,1.1-0.7,1.6l-0.2,0.3
		c-0.7,0.8-1.6,1.3-2.7,1.3H13.2c-2.1-0.1-3.8-1.9-3.7-4v-2.1c-0.1-4.1,2.1-7.9,5.7-9.9c6.6-3.8,14.2-6,22-6.2l0.3,0v0
		C38.5,56.5,39.6,56.6,40.8,56.7z M37.4,56.5l-0.1-0.7c0,0,0.1,0,0.1,0l0,0L37.4,56.5z"/>
	<path d="M37,50.8L37,50.8c6.2,0,11.8-3.7,14.2-9.3C54.1,45,58.4,47,63,47c8.6,0,15.6-7,15.6-15.6c0-8.6-7-15.6-15.6-15.6
		c-6.2,0-11.8,3.7-14.2,9.3c-2.9-3.4-7.3-5.5-11.8-5.5c-8.6,0-15.6,7-15.6,15.6C21.4,43.8,28.4,50.8,37,50.8z M26.9,35.2
		c0-5.5,4.5-10.1,10.1-10.1c5.5,0,10.1,4.5,10.1,10.1c0,5.5-4.5,10.1-10.1,10.1C31.4,45.3,26.9,40.8,26.9,35.2z"/>
</g>
</svg>
