<?xml version="1.0" encoding="utf-8"?>
<!-- Generator: Adobe Illustrator 27.7.0, SVG Export Plug-In . SVG Version: 6.00 Build 0)  -->
<svg version="1.1" id="Layer_1" xmlns="http://www.w3.org/2000/svg" xmlns:xlink="http://www.w3.org/1999/xlink" x="0px" y="0px"
	 viewBox="0 0 100 100" style="enable-background:new 0 0 100 100;" xml:space="preserve">
<g>
	<path d="M50,8.7c-10,0-18.1,8.1-18.1,18.1S40,45,50,45s18.1-8.1,18.1-18.1S60,8.7,50,8.7z"/>
	<path d="M50,51.8c-14.1,0-26.8,5.4-35.1,9.9C8.7,65.2,4.9,71.9,4.9,79.3v3.2c0,4.8,3.7,8.7,8.3,8.7h73.7c4.6,0,8.3-3.9,8.3-8.7
		v-3.2c0-7.4-3.9-14.1-10.1-17.6l0,0C76.8,57.2,64.1,51.8,50,51.8z"/>
</g>
</svg>
