<?xml version="1.0" encoding="utf-8"?>
<!-- Generator: Adobe Illustrator 27.7.0, SVG Export Plug-In . SVG Version: 6.00 Build 0)  -->
<svg version="1.1" id="Layer_1" xmlns="http://www.w3.org/2000/svg" xmlns:xlink="http://www.w3.org/1999/xlink" x="0px" y="0px"
	 viewBox="0 0 100 100" style="enable-background:new 0 0 100 100;" xml:space="preserve">
<style type="text/css">
	.st0{fill:none;}
</style>
<g>
	<path class="st0" d="M24.2,67.6c0.3,3.3,1.9,6.5,4.5,8.7l0,0c0,0,0,0,0,0c2.5,2.1,5.9,3.1,9.2,2.8c3.3-0.3,6.3-1.8,8.3-4.3
		c2-2.4,2.9-5.3,2.9-8.1c-8.3,0-16.6,0-24.9,0C24.2,66.9,24.2,67.2,24.2,67.6z"/>
	<path class="st0" d="M67.6,71.3C67.6,71.3,67.6,71.3,67.6,71.3c1.3,1.5,3.3,2.4,5.3,2.5c2,0.1,4-0.6,5.4-1.9
		c1.6-1.4,2.5-3.4,2.6-5.3c-5.1,0-10.2,0-15.2,0C65.8,68.3,66.5,70,67.6,71.3L67.6,71.3z"/>
	<path d="M79,61.1C79,61.1,79,61.1,79,61.1c-1.4-1.5-3.2-2.4-5.2-2.5c-2-0.1-3.9,0.5-5.4,1.8c-1.6,1.4-2.6,3.3-2.7,5.3
		c0,0.3,0,0.7,0,1c5.1,0,10.2,0,15.2,0C81.1,64.7,80.5,62.7,79,61.1z"/>
	<path d="M86.2,31.9c-0.9-0.2-1.3-0.6-1.5-1.5c-2.6-11.1-15-16.8-25.2-11.6c-0.9,0.5-1.3,0.4-1.9-0.5c-3.8-5.6-9.1-8.8-15.8-10
		c-0.2,0-0.4-0.1-0.7-0.2c-2,0-3.9,0-5.9,0c-3.1,0.5-6.1,1.4-8.9,3.1c-7.3,4.5-11.2,10.9-11.7,19.5c0,0.6-0.2,1-0.8,1.1
		C6.4,33.8,1.8,38.5,0.1,46.1c0,0.1-0.1,0.2-0.1,0.4c0,1.7,0,3.4,0,5.1c0.7,3.4,2,6.5,4.4,9.1C6.1,62.5,8,64,10.1,65
		c0-0.1,0-0.1,0-0.2c-0.1-1.4,0.7-2.5,2.2-2.6c0.7-0.1,1.3-0.1,1.9-0.2c0.3-1.5,0.7-2.9,1.3-4.2c-0.4-0.4-0.9-0.7-1.4-1.2
		c-1.2-1-1.3-2.3-0.3-3.5c0.6-0.8,1.3-1.5,1.9-2.3l1.4-1.7l0.2-0.2c0.6-0.8,1.2-1.5,1.9-2.3c1-1.2,2.3-1.3,3.5-0.3
		c0.5,0.4,0.9,0.8,1.4,1.2c1.2-0.8,2.5-1.5,3.9-2c-0.1-0.6-0.1-1.2-0.2-1.9c-0.1-1.5,0.8-2.5,2.2-2.7c3-0.3,5.8-0.5,8.4-0.8
		c1.5-0.1,2.6,0.8,2.7,2.3c0.1,0.7,0.1,1.2,0.2,1.8c1.4,0.3,2.7,0.7,4.2,1.3c0.4-0.5,0.8-1,1.2-1.4c1-1.2,2.4-1.3,3.5-0.3
		c2.2,1.8,4.4,3.7,6.5,5.4c1.1,1,1.3,2.3,0.4,3.4c-0.4,0.5-0.8,1-1.2,1.5c0.9,1.3,1.5,2.6,2.1,3.9c0.6-0.1,1.2-0.1,1.8-0.2
		c0.2,0,0.4,0,0.6,0.1c-0.4-0.7-0.3-1.3,0.3-1.9c0.4-0.4,0.9-0.8,1.4-1.2l1-0.9l0.1-0.1c0.4-0.4,0.9-0.8,1.3-1.2
		c0.7-0.6,1.5-0.6,2.2,0.1c0.3,0.3,0.5,0.5,0.7,0.8c0.8-0.4,1.7-0.7,2.5-0.9c0-0.4,0-0.7,0.1-1.1c0.1-0.9,0.7-1.5,1.6-1.4
		c1.9,0.1,3.6,0.2,5.2,0.3c0.9,0.1,1.5,0.7,1.5,1.6c0,0.4,0,0.7-0.1,1.1c0.8,0.3,1.6,0.7,2.4,1.2c0.3-0.3,0.6-0.5,0.8-0.7
		c0.7-0.6,1.5-0.6,2.2,0.1c1.2,1.3,2.3,2.6,3.4,3.8c0.6,0.7,0.6,1.5-0.1,2.1c-0.3,0.3-0.6,0.5-0.9,0.8c0.4,0.9,0.7,1.7,0.9,2.5
		c0.4,0,0.7,0,1.1,0.1c1,0.1,1.5,0.7,1.5,1.6c0,0.2,0,0.3,0,0.5c5.6-2.5,9.7-7.8,10.4-14.2C100.8,42.1,94.9,33.8,86.2,31.9z"/>
	<path d="M44.7,57.1C44.7,57.1,44.7,57.1,44.7,57.1c-2.6-2.1-5.8-3.2-9.1-2.9c-3.2,0.3-6.1,1.7-8.2,4.1c-2.1,2.4-3.1,5.3-3.1,8.3
		c8.3,0,16.6,0,24.9,0C49.2,63.1,47.7,59.5,44.7,57.1z"/>
	<path d="M58.5,69.5c-0.9-0.1-1.4-0.7-1.4-1.6c0-0.4,0-0.9,0.1-1.3c-2.7,0-5.4,0-8,0c0,2.8-0.9,5.7-2.9,8.1c-2.1,2.5-5,4-8.3,4.3
		c-3.3,0.3-6.7-0.7-9.2-2.8c0,0,0,0,0,0l0,0c-2.6-2.2-4.2-5.3-4.5-8.7c0-0.3,0-0.6,0-0.9c-2.2,0-4.5,0-6.7,0c-2.7,0-5.2-0.6-7.5-1.7
		c0.3,3,0.5,5.7,0.8,8.3c0.1,1.4,1.2,2.3,2.6,2.2c0.6,0,1.2-0.1,1.9-0.2c0.5,1.3,1.2,2.6,2.1,3.9c-0.4,0.5-0.8,1-1.2,1.4
		c-1,1.2-0.8,2.5,0.4,3.5c1,0.9,2.1,1.8,3.2,2.7c1.1,0.9,2.1,1.8,3.2,2.7c1.2,1,2.5,0.9,3.6-0.3c0.4-0.5,0.8-1,1.2-1.4
		c1.5,0.6,2.9,1.1,4.2,1.3c0,0.6,0.1,1.2,0.2,1.9c0.2,1.4,1.2,2.3,2.6,2.2c2.9-0.2,5.7-0.5,8.5-0.8c1.4-0.1,2.3-1.2,2.2-2.6
		c-0.1-0.7-0.1-1.3-0.2-1.9c1.4-0.6,2.7-1.2,3.9-2c0.5,0.4,1,0.8,1.4,1.2c1.2,0.9,2.5,0.8,3.5-0.3c1.9-2.3,3.7-4.4,5.4-6.5
		c1-1.2,0.8-2.5-0.3-3.5c-0.5-0.4-0.9-0.8-1.4-1.2c0.6-1.4,1-2.8,1.3-4.2c0.3,0,0.7-0.1,1-0.1c-0.2-0.6-0.5-1.1-0.6-1.7
		C59.3,69.5,58.9,69.5,58.5,69.5z"/>
	<path d="M81,66.6c-0.1,1.9-1,3.9-2.6,5.3c-1.5,1.3-3.4,2-5.4,1.9c-2-0.1-4-1-5.3-2.5c0,0,0,0,0,0l0,0c-1.1-1.3-1.8-3-1.9-4.7
		c-0.9,0-1.7,0-2.6,0c0.1,0.6,0.1,1.2,0.2,1.8c0.1,1.5-0.8,2.5-2.2,2.7c-0.3,0-0.6,0-0.8,0.1c0.1,0.3,0.2,0.6,0.3,0.9
		c-0.3,0.3-0.6,0.5-0.8,0.8C59,73.5,59,74.3,59.6,75c0.6,0.6,1.1,1.3,1.7,1.9c0.6,0.6,1.1,1.3,1.7,1.9c0.7,0.7,1.4,0.8,2.2,0.1
		c0.3-0.3,0.6-0.5,0.8-0.7c0.8,0.5,1.6,0.9,2.4,1.2c0,0.3,0,0.7-0.1,1.2c0,0.9,0.5,1.5,1.4,1.6c1.8,0.1,3.5,0.2,5.2,0.3
		c0.9,0,1.5-0.5,1.6-1.4c0-0.4,0.1-0.8,0.1-1.2c0.9-0.2,1.7-0.5,2.6-0.9c0.3,0.3,0.5,0.6,0.8,0.8c0.6,0.7,1.5,0.7,2.1,0.1
		c1.4-1.2,2.6-2.4,3.9-3.5c0.7-0.6,0.7-1.5,0.1-2.2c-0.3-0.3-0.5-0.6-0.7-0.8c0.5-0.8,0.9-1.6,1.2-2.4c0.3,0,0.7,0,1.1,0.1
		c0.9,0,1.5-0.5,1.6-1.4c0.1-1.6,0.2-3.2,0.3-4.7c-2.2,1-4.7,1.6-7.3,1.6C81.8,66.6,81.4,66.6,81,66.6z"/>
	<path d="M63.3,68.5c-0.1-0.6-0.1-1.2-0.2-1.8c-2,0-4,0-6,0c0,0.4,0,0.9-0.1,1.3c0,0.9,0.5,1.5,1.4,1.6c0.4,0,0.8,0,1.2,0.1
		c0.1,0.5,0.4,1.1,0.6,1.7c0.3,0,0.5,0,0.8-0.1C62.5,71,63.4,69.9,63.3,68.5z"/>
</g>
</svg>
