<?xml version="1.0" encoding="utf-8"?>
<!-- Generator: Adobe Illustrator 25.2.0, SVG Export Plug-In . SVG Version: 6.00 Build 0)  -->
<svg version="1.1" xmlns="http://www.w3.org/2000/svg" xmlns:xlink="http://www.w3.org/1999/xlink" x="0px" y="0px"
	 viewBox="0 0 88.26 74.71" style="enable-background:new 0 0 88.26 74.71;" xml:space="preserve">
<g>
	<path d="M77.76,28.1l-43.92,2.3c-0.92,0.05-1.63,0.83-1.58,1.75c0.05,0.89,0.78,1.58,1.67,1.58c0.03,0,0.06,0,0.09,0
		l43.92-2.3c0.92-0.05,1.63-0.83,1.58-1.75C79.47,28.76,78.63,28.07,77.76,28.1z"/>
	<path d="M33.13,22.36l44.21-1.2c0.92-0.02,1.65-0.79,1.62-1.71c-0.02-0.92-0.85-1.59-1.71-1.62l-44.21,1.2
		c-0.92,0.02-1.65,0.79-1.62,1.71c0.02,0.91,0.77,1.62,1.67,1.62C33.1,22.36,33.11,22.36,33.13,22.36z"/>
	<path d="M84.15,6.78C63.5,6.84,42.86,6.81,22.22,6.84c-0.8,0-1.17-0.14-1.26-1.03c-0.1-1.02-0.38-2.03-0.65-3.02
		c-0.52-1.86-1.64-2.76-3.55-2.77C12.36-0.01,7.97,0,3.57,0.01C1.72,0.02,0.63,1.07,0,2.71c0,0.46,0,0.92,0,1.38
		c0.71,2,2.14,2.8,4.25,2.75c3.01-0.07,6.03,0.01,9.04-0.04c0.7-0.01,0.98,0.17,1.13,0.88c2.35,11.07,4.74,22.14,7.12,33.21
		c0.64,2.97,1.26,5.94,1.92,8.91c0.1,0.46,0.03,0.82-0.18,1.22c-0.91,1.69-1.86,3.37-2.55,5.16c-1.02,2.69,0.51,4.88,3.39,4.9
		c0.49,0,0.97,0,1.49,0.11c-0.48,0.19-0.97,0.35-1.43,0.59c-2.54,1.3-4.07,3.93-3.79,6.51c0.33,3.15,2.19,5.35,5.16,6.16
		c0.44,0.12,0.93-0.02,1.33,0.25c0.17,0,0.34,0,0.52,0c0.93-0.26,1.9-0.31,2.78-0.79c2.47-1.34,3.97-3.9,3.73-6.48
		c-0.27-2.98-2.02-5.17-4.82-6.07c-0.13-0.04-0.26-0.1-0.58-0.23c14.99,0,29.79,0,44.59,0c0.02,0.03,0.03,0.05,0.04,0.08
		c-0.24,0.08-0.48,0.15-0.72,0.23c-2.95,0.94-4.83,3.97-4.5,7.22c0.31,2.99,2.89,5.58,5.85,5.87c0.22,0.02,0.44,0.1,0.66,0.15
		c0.17,0,0.34,0,0.52,0c0.84-0.26,1.74-0.28,2.54-0.69c2.5-1.26,4.09-3.81,3.92-6.36c-0.21-3.11-1.95-5.36-4.87-6.29
		c-0.13-0.04-0.26-0.09-0.4-0.28c0.57,0,1.15,0.01,1.72,0c2.01-0.05,3.52-1.47,3.56-3.34c0.04-1.86-1.43-3.33-3.45-3.44
		c-0.34-0.02-0.69-0.01-1.03-0.01c-15.48,0-30.95,0-46.42,0c-0.37,0-0.74,0.08-1.1-0.08c-0.05-0.26,0.07-0.46,0.19-0.65
		c0.99-1.63,1.05-3.33,0.52-5.13c-0.35-1.19-0.29-1.23,0.9-1.37c6.13-0.72,12.25-1.42,18.38-2.14c6.15-0.72,12.31-1.45,18.46-2.17
		c5.58-0.65,11.17-1.32,16.76-1.95c2.42-0.27,3.58-1.51,3.58-3.95c0-8.64-0.05-17.28,0.04-25.92C88.28,8.51,86.79,6.78,84.15,6.78z
		 M31.41,20.74c-0.02-0.92,0.7-1.69,1.62-1.71l44.21-1.2c0.86,0.03,1.69,0.7,1.71,1.62c0.02,0.92-0.7,1.69-1.62,1.71l-44.21,1.2
		c-0.01,0-0.03,0-0.05,0C32.18,22.36,31.44,21.64,31.41,20.74z M77.93,31.43l-43.92,2.3c-0.03,0-0.06,0-0.09,0
		c-0.88,0-1.62-0.69-1.67-1.58c-0.05-0.92,0.66-1.71,1.58-1.75l43.92-2.3c0.88-0.03,1.71,0.66,1.75,1.58
		C79.56,30.6,78.85,31.38,77.93,31.43z"/>
</g>
</svg>
