<?xml version="1.0" encoding="utf-8"?>
<!-- Generator: Adobe Illustrator 27.7.0, SVG Export Plug-In . SVG Version: 6.00 Build 0)  -->
<svg version="1.1" id="Layer_1" xmlns="http://www.w3.org/2000/svg" xmlns:xlink="http://www.w3.org/1999/xlink" x="0px" y="0px"
	 viewBox="0 0 100 100" style="enable-background:new 0 0 100 100;" xml:space="preserve">
<g>
	<path d="M49.3,24c3.3-0.1,5.9-2.9,5.8-6.2c-0.1-3.2-2.7-5.7-5.8-5.8c-0.1,0-0.1,0-0.2,0c-0.1,0-0.1,0-0.2,0c-0.5,0-1,0.1-1.5,0.1
		c-0.5,0-1,0.1-1.5,0.1c-0.8,0.1-1.5,0.2-2.3,0.3c-0.4,0.1-0.7,0.1-1.1,0.2c-0.9,0.2-1.8,0.4-2.7,0.6c-0.1,0-0.2,0.1-0.3,0.1
		c-14.1,4-24.8,16-27.1,30.8h0H0l12.6,12.6l6.2,6.2L25,57l12.7-12.7h-13c0.1-0.3,0.2-0.6,0.3-0.9c1.4-5.3,4.4-9.9,8.5-13.3
		c0.2-0.1,0.3-0.3,0.5-0.4c0.9-0.7,1.9-1.4,2.9-2c0.4-0.2,0.7-0.4,1.1-0.6c0.9-0.5,1.8-0.9,2.8-1.3c0.6-0.2,1.2-0.4,1.8-0.6
		c0.8-0.2,1.6-0.5,2.5-0.7c0.9-0.2,1.7-0.2,2.6-0.3C48.1,24.2,48.7,24,49.3,24z"/>
	<path d="M87.4,43.1l-6.2-6.2L75,43L62.3,55.8h13c-0.1,0.3-0.2,0.6-0.3,0.9c-1.4,5.3-4.4,9.9-8.5,13.3c-0.2,0.1-0.3,0.3-0.5,0.4
		c-0.9,0.7-1.9,1.4-2.9,2c-0.4,0.2-0.7,0.4-1.1,0.6c-0.9,0.5-1.8,0.9-2.8,1.3c-0.6,0.2-1.2,0.4-1.8,0.6c-0.8,0.2-1.6,0.5-2.5,0.7
		c-0.9,0.2-1.7,0.2-2.6,0.3c-0.6,0.1-1.1,0.2-1.7,0.2c-3.3,0.1-5.9,2.9-5.8,6.2c0.1,3.2,2.7,5.7,5.8,5.8c0.1,0,0.1,0,0.2,0
		c0.1,0,0.1,0,0.2,0c0.5,0,1-0.1,1.5-0.1c0.5,0,1-0.1,1.5-0.1c0.8-0.1,1.5-0.2,2.3-0.3c0.3-0.1,0.7-0.1,1-0.2
		c0.9-0.2,1.8-0.4,2.7-0.6c0.1,0,0.2-0.1,0.3-0.1c14.2-4,24.9-15.9,27.1-30.8H100L87.4,43.1z"/>
</g>
</svg>
