<?xml version="1.0" encoding="utf-8"?>
<!-- Generator: Adobe Illustrator 27.7.0, SVG Export Plug-In . SVG Version: 6.00 Build 0)  -->
<svg version="1.1" id="Layer_1" xmlns="http://www.w3.org/2000/svg" xmlns:xlink="http://www.w3.org/1999/xlink" x="0px" y="0px"
	 viewBox="0 0 100 100" style="enable-background:new 0 0 100 100;" xml:space="preserve">
<g>
	<rect x="5.6" y="34.4" width="24.4" height="3.2"/>
	<rect x="5.6" y="39.3" width="24.4" height="3.2"/>
	<path d="M99,75.1c-1.8-2.4-6.2-8.6-7.9-14c-0.5-1.5-1.1-3.7-1.8-6.1c-2.9-10.3-6-20.6-8.8-23.4c-2.8-2.7-15.3-5-19.7-5.7l0.1-9.8
		c0-4.4-3.5-8.1-8-8.1L8.7,7.8c-4.4,0-8.1,3.6-8.1,8L0.4,41.5c0,4.4,3.5,8.1,8,8.1l37,0.2c2.2,4,3.7,8,4,11.1
		c0.1,0.6,0.1,1.2,0.1,1.8c0.1,2.9,0.3,5.4,4.1,10.6c2,2.7,4.8,4.4,7.7,6.1c4,2.4,9,5.4,13.1,12l0.5,0.8l0.9,0
		c14.9-0.6,21.7-12,23.4-15.4l0.4-0.9L99,75.1z M8.4,46.4c-2.7,0-4.8-2.2-4.8-4.9l0.3-25.7C3.8,13.1,6,11,8.7,11c0,0,0,0,0,0
		l44.2,0.3c2.7,0,4.8,2.2,4.8,4.9l-0.3,25.7c0,0.9-0.3,1.8-0.7,2.5c-0.9-1.9-1.6-3.5-2-4.4c-0.3-0.7-0.7-1.4-1.2-2.2
		c-0.3-2.6-2.1-4.7-4.5-5.5c-1.9-1.8-3.9-3.2-5.6-3.5c-1.2-0.2-2.1,0-2.8,0.7c-0.7,0.7-1.2,1.6-1.6,2.5c-3.2,0.4-5.8,3.1-5.8,6.4
		c0,3.6,2.9,6.5,6.5,6.5c0.8,0,1.5-0.1,2.2-0.4c0.3,0.4,0.5,0.8,0.8,1.2c0.2,0.3,0.4,0.6,0.6,0.8L8.4,46.4z M38.7,35.3
		c0.1,2,0.8,4.2,1.8,6.3c-0.2,0-0.4,0.1-0.7,0.1c-1.8,0-3.3-1.5-3.3-3.3C36.5,37,37.4,35.8,38.7,35.3z M70,50.7
		c-0.7,1.5-2,3.2-3.7,4.3c-0.2,0.1-0.4,0.1-0.5,0.1c-2.8-1.2-5.3-4.4-7.3-7.7c1.4-1.4,2.2-3.4,2.2-5.5l0-3.5l7.6,3
		c0.2,0.1,0.3,0.2,0.3,0.4c0.1,0.2,1.8,4.4,2.1,6.3C70.9,49,70.2,50.3,70,50.7z"/>
</g>
</svg>
