<svg xmlns="http://www.w3.org/2000/svg" width="41.057" height="49.507" viewBox="0 0 41.057 49.507">
  <path id="Invoice" d="M46.7,6.3H20.675A7,7,0,0,0,13.7,13.219v35.67a6.91,6.91,0,0,0,6.919,6.918h27.5a6.607,6.607,0,0,0,6.635-6.635V13.615ZM45.457,44.579H22.944a1.985,1.985,0,1,1,0-3.97H45.457a1.985,1.985,0,0,1,0,3.97Zm0-11.625H22.944a1.985,1.985,0,1,1,0-3.97H45.457a2.009,2.009,0,0,1,1.985,1.985A1.972,1.972,0,0,1,45.457,32.953Zm0-11.4H22.944a1.985,1.985,0,0,1,0-3.97H45.457a1.985,1.985,0,0,1,0,3.97Zm0-6.181V8.568l7.259,6.805Z" transform="translate(-13.7 -6.3)"/>
</svg>
