<?xml version="1.0" encoding="utf-8"?>
<!-- Generator: Adobe Illustrator 27.7.0, SVG Export Plug-In . SVG Version: 6.00 Build 0)  -->
<svg version="1.1" id="Layer_1" xmlns="http://www.w3.org/2000/svg" xmlns:xlink="http://www.w3.org/1999/xlink" x="0px" y="0px"
	 viewBox="0 0 100 100" style="enable-background:new 0 0 100 100;" xml:space="preserve">
<g>
	<path d="M44.7,48.1l39.2-24c-0.9-2.8-3.6-4.8-6.6-4.8H8.6c-2.9,0-5.5,1.8-6.4,4.3l38.9,24.5C42.2,48.7,43.6,48.7,44.7,48.1z"/>
	<path d="M84.4,45.2V32.6L48.6,54.5c-1.7,1.1-3.7,1.6-5.6,1.6c-2,0-4-0.6-5.7-1.7L1.6,32.1v35c0,3.9,3.1,7,7,7h50.9
		c3.4,6.6,10.3,11.1,18.3,11.1c11.3,0,20.6-9.2,20.6-20.6C98.4,55.6,92.5,47.9,84.4,45.2z M77.8,80c-4.9,0-9.2-2.3-12-5.8
		c-2.1-2.6-3.3-5.9-3.3-9.5c0-8.4,6.9-15.3,15.3-15.3c2.3,0,4.6,0.5,6.5,1.5c5.2,2.5,8.8,7.7,8.8,13.8C93.1,73.1,86.2,80,77.8,80z"
		/>
	<path d="M87.5,57.5c0-0.1,0-0.2-0.4-0.3c-1-0.3-1.9-0.6-2.8-0.9c-0.5-0.2-1.1-0.4-1.5-0.6c-1.7-0.7-3.4-1.4-4.8-2.5h-0.2
		c-0.1,0.1-0.2,0.2-0.3,0.2c0,0,0,0-0.1,0c-2.6,1.5-5.5,2.8-8.7,3.7c-0.5,0.2-0.6,0.3-0.6,0.8c0,0.8,0,1.7,0,2.5c0,0.8,0,1.7,0,2.6
		c0.1,3.5,1.4,6.6,3.7,9.2c0.6,0.7,1.3,1.3,2.1,1.9c1,0.8,2.1,1.4,3.4,2h0.9c5-2.1,8.1-5.8,9.1-11c0.3-1.7,0.3-3.5,0.2-5.2
		C87.5,59.1,87.5,58.3,87.5,57.5z"/>
</g>
</svg>
