<?xml version="1.0" encoding="utf-8"?>
<!-- Generator: Adobe Illustrator 27.7.0, SVG Export Plug-In . SVG Version: 6.00 Build 0)  -->
<svg version="1.1" id="Layer_1" xmlns="http://www.w3.org/2000/svg" xmlns:xlink="http://www.w3.org/1999/xlink" x="0px" y="0px"
	 viewBox="0 0 100 100" style="enable-background:new 0 0 100 100;" xml:space="preserve">
<path d="M78.6,22.1c-15.3-15.3-40-15.3-55.3,0c-7.4,7.4-11.2,17.1-11.4,26.8h0v29.8v0.7v6.1c0,1.8,1.5,3.3,3.3,3.3h6.1h0.7h27.7
	v-0.1c10.5,0.4,21-3.4,29-11.4C93.9,62.1,93.9,37.4,78.6,22.1z M54.4,65.6H31.7c-1.7,0-3-1.3-3-3c0-1.7,1.3-3,3-3h22.7
	c1.7,0,3,1.3,3,3C57.4,64.3,56.1,65.6,54.4,65.6z M70.2,54.5H31.7c-1.7,0-3-1.3-3-3s1.3-3,3-3h38.5c1.7,0,3,1.3,3,3
	S71.8,54.5,70.2,54.5z M70.2,43.4H31.7c-1.7,0-3-1.3-3-3c0-1.7,1.3-3,3-3h38.5c1.7,0,3,1.3,3,3C73.2,42,71.8,43.4,70.2,43.4z"/>
</svg>
