<?xml version="1.0" encoding="utf-8"?>
<!-- Generator: Adobe Illustrator 27.7.0, SVG Export Plug-In . SVG Version: 6.00 Build 0)  -->
<svg version="1.1" id="Layer_1" xmlns="http://www.w3.org/2000/svg" xmlns:xlink="http://www.w3.org/1999/xlink" x="0px" y="0px"
	 viewBox="0 0 100 100" style="enable-background:new 0 0 100 100;" xml:space="preserve">
<g>
	<g>
		<g>
			<path d="M68.4,82.5c-1.5,0-2.7-1.2-2.7-2.7V61.9c0-1.5,1.2-2.7,2.7-2.7c1.5,0,2.7,1.2,2.7,2.7v17.9
				C71.1,81.3,69.9,82.5,68.4,82.5z"/>
			<path d="M77.3,73.6H59.4c-1.5,0-2.7-1.2-2.7-2.7c0-1.5,1.2-2.7,2.7-2.7h17.9c1.5,0,2.7,1.2,2.7,2.7C80,72.4,78.8,73.6,77.3,73.6z
				"/>
		</g>
	</g>
	<g>
		<ellipse transform="matrix(0.3827 -0.9239 0.9239 0.3827 10.3724 48.5706)" cx="41.5" cy="16.5" rx="15.3" ry="15.3"/>
		<path d="M88.2,50.8c-6.3-6.3-15-9-23.3-8c-6.5-2.9-14.6-5.4-23.4-5.4c-11.8,0-22.6,4.5-29.5,8.4c-5.2,2.9-8.5,8.5-8.5,14.8v2.7
			c0,4,3.1,7.3,7,7.3h29.8c0,7.2,2.7,14.4,8.2,19.8c5.5,5.5,12.7,8.2,19.8,8.2c7.2,0,14.4-2.7,19.8-8.2
			C99.2,79.6,99.2,61.8,88.2,50.8z M83.1,85.4c-8.1,8.1-21.4,8.1-29.5,0c-4.1-4.1-6.1-9.4-6.1-14.7c0-5.3,2-10.7,6.1-14.7
			c4.1-4.1,9.4-6.1,14.7-6.1c3,0,6,0.7,8.7,2c2.2,1,4.2,2.3,6,4.1C91.2,64.1,91.2,77.3,83.1,85.4z"/>
	</g>
</g>
</svg>
