<?xml version="1.0" encoding="utf-8"?>
<!-- Generator: Adobe Illustrator 27.7.0, SVG Export Plug-In . SVG Version: 6.00 Build 0)  -->
<svg version="1.1" id="Layer_1" xmlns="http://www.w3.org/2000/svg" xmlns:xlink="http://www.w3.org/1999/xlink" x="0px" y="0px"
	 viewBox="0 0 100 100" style="enable-background:new 0 0 100 100;" xml:space="preserve">
<path d="M87.8,24.5c0-1-0.1-2.1-0.2-3.1C86,15.2,81.2,10.2,75.2,7.7c-1.9-0.6-3.8-1-5.7-1.4c-0.9-0.2-1.9-0.3-2.8-0.5
	c-6.2-0.4-17.6-0.7-17.6-0.7S35.8,5.7,31.4,6.3c-0.5,0.1-1,0.1-1.4,0.2c0,0-0.1,0-0.1,0c-0.6,0.1-1.1,0.2-1.7,0.4C28.1,7,28,7,28,7
	c-8.2,2.3-14.8,8.7-15.8,17v0c0,7.2,0,14.4,0,21.5c0,7.7,0,15.4,0,23c0,5.2,2,9.5,5.8,12.8c2.3,2,5.1,3.4,8.2,3.7
	c0.8,0.1,1.5,0.2,2.4,0.3c-1.2,1.2-2.4,2.4-3.6,3.6c-0.6,0.6-1.2,1.4-1.9,1.9c-1.3,1-1.8,2.2-1.3,3.8c0.1,0,0.4,0,0.6,0
	c3.1,0,6.1,0,9.2,0c0.4,0,0.9-0.2,1.2-0.5c2.8-2.8,5.6-5.6,8.5-8.4c0.3-0.3,0.8-0.5,1.3-0.5c5.4,0,10.8,0,16.2,0
	c0.6,0,1,0.2,1.4,0.6c2.8,2.8,5.6,5.6,8.4,8.4c0.3,0.3,0.8,0.5,1.2,0.5c2.9,0,5.7,0,8.6,0c0.1-1.3,0.2-2.5-1-3.5
	c-2.1-1.8-4-3.9-5.8-5.7c1.9-0.4,3.8-0.7,5.7-1.4c3.9-1.4,6.8-4.1,8.8-7.8c1.5-2.8,2-5.7,2-8.7c0-6.7,0-13.4,0-20.2
	C87.9,39.9,87.9,32.2,87.8,24.5z M54.8,23.9h23.6v18.8H54.8V23.9z M21.6,23.9h23.6v18.8H21.6V23.9z M28.6,75.8
	c-3.9,0.1-7.1-3.4-7-7.3c0.1-2.7,1.9-5.7,5.1-6.6c0.8-0.2,1.7-0.3,2.7-0.2c1,0.1,1.9,0.4,2.7,0.8c2.2,1.1,3.6,3.3,3.7,6.1
	C35.9,72.5,32.8,75.9,28.6,75.8z M71.2,75.9c-3.6,0.1-7-3.4-7-7.1c0-2.6,1.5-5,3.7-6.2c1-0.5,2.1-0.8,3.3-0.8c0.8,0,1.6,0.1,2.3,0.3
	c2.8,0.8,4.7,3.5,4.9,6C78.7,72.9,74.6,75.8,71.2,75.9z"/>
</svg>
