<?xml version="1.0" encoding="utf-8"?>
<!-- Generator: Adobe Illustrator 27.7.0, SVG Export Plug-In . SVG Version: 6.00 Build 0)  -->
<svg version="1.1" id="Layer_1" xmlns="http://www.w3.org/2000/svg" xmlns:xlink="http://www.w3.org/1999/xlink" x="0px" y="0px"
	 viewBox="0 0 100 100" style="enable-background:new 0 0 100 100;" xml:space="preserve">
<path id="Subtraction_13_00000016053303431612245910000014368472304022884997_" d="M56.4,78H43.3c-8.4,0-17.1,0-25.7,0
	C9,78,1.6,71.9,0.1,63.4v-4.9c0,0,0-0.1,0-0.1c0-0.1,0.1-0.2,0.1-0.2c0.7-3.4,2.3-6.5,4.7-9c2.5-2.4,5.7-4.1,9.1-4.9
	c0.6-0.2,0.8-0.5,0.8-1.1c0.3-7.9,4.7-15.1,11.7-18.9c1.8-1,3.6-1.8,5.6-2.3v10.9c0,5.8,0,18,0,23.2c0,1.4,0.1,2.6,1.5,3.2
	c0.3,0.2,0.7,0.3,1,0.3c0.9-0.1,1.7-0.5,2.3-1.2l0.1-0.1c0.5-0.4,1-0.8,1.4-1.1c1.1-0.8,2.1-1.7,3.1-2.6c0.4-0.5,1-0.8,1.6-0.9
	c0.7,0.1,1.3,0.4,1.8,1c0.8,0.7,1.6,1.4,2.4,2.1c0.7,0.6,1.4,1.1,2,1.7c0.6,0.6,1.5,1,2.3,1.1c0.9,0,1.7-0.4,2.3-1
	c0.8-0.7,1.6-1.4,2.5-2.1s1.7-1.4,2.5-2.2c0.3-0.4,0.8-0.6,1.3-0.7c0.5,0,0.9,0.3,1.2,0.6c1.1,1,2.3,2,3.5,3l0,0
	c0.4,0.3,0.8,0.6,1.2,0.9c0.1,0.1,0.3,0.2,0.4,0.3c0.6,0.6,1.4,1,2.2,1.1c0.3,0,0.7-0.1,1-0.2c1.6-0.7,1.6-2.1,1.6-3.4v-0.2
	c0-2.9-0.1-6.3-0.2-9.8c-0.2-5.8-0.4-11.7-0.1-16.4l2.8,1.5c1.6,0.3,3.1,1,4.4,1.9c3.3,2.4,5.5,6,6.3,10c0.1,0.8,0.7,1.4,1.5,1.5
	c4.2,0.9,7.9,3.3,10.4,6.7c2.5,3.3,3.7,7.5,3.3,11.6c-0.5,4.2-2.5,8.1-5.8,10.9c-3.3,2.9-7.5,4.4-11.8,4.5H56.4z M56.1,44.2H45.1
	c-1.8,0-2.8-0.7-2.9-2.2c-0.1-0.7,0.1-1.3,0.5-1.8c0.6-0.5,1.4-0.8,2.2-0.8c2.3,0,4.6,0,6.8,0c2.4,0,4.8,0,7.2,0.1
	c0.8,0,1.5,0.2,2.1,0.7c0.4,0.5,0.6,1.1,0.6,1.7c0,1.5-1,2.3-2.7,2.3C58.1,44.2,57.2,44.2,56.1,44.2L56.1,44.2z M56,34.7
	c-0.7,0-1.4,0-2.1,0c-0.7,0-1.4,0-2.1,0h-1.7h0h-2.2c-1,0-1.8,0-2.5,0c-0.9,0.1-1.8-0.2-2.5-0.8c-0.4-0.5-0.6-1.1-0.6-1.7l0.6-1.6
	l2.4-0.7h13.6c1.8,0,2.8,0.7,2.8,2.2c0.1,0.6-0.1,1.3-0.5,1.8c-0.6,0.6-1.4,0.8-2.2,0.8C58,34.7,57.1,34.7,56,34.7L56,34.7z"/>
</svg>
