<?xml version="1.0" encoding="utf-8"?>
<!-- Generator: Adobe Illustrator 27.7.0, SVG Export Plug-In . SVG Version: 6.00 Build 0)  -->
<svg version="1.1" id="Layer_1" xmlns="http://www.w3.org/2000/svg" xmlns:xlink="http://www.w3.org/1999/xlink" x="0px" y="0px"
	 viewBox="0 0 100 100" style="enable-background:new 0 0 100 100;" xml:space="preserve">
<g id="x5ZT9N.tif_00000084502634049447224600000010395815614887193772_">
	<g>
		<path d="M98.2,30.4c0,16.3,0,32.6,0,48.9c0,0.1-0.1,0.2-0.1,0.2c-0.9,4.5-4.1,7.3-8.8,7.3c-26.2,0-52.4,0-78.6,0
			c-5.2,0-8.9-3.7-8.9-8.9c0-18.7,0-37.3,0-56c0-5.3,3.7-8.9,8.9-8.9c10.2,0,20.3,0,30.5,0c0.8,0,1.4,0.3,1.9,0.9
			c2.2,2.7,4.5,5.3,6.7,8c0.5,0.6,0.9,0.8,1.7,0.8c12.5,0,25,0,37.5,0c2.9,0,5.3,0.9,7.2,3.2C97.3,27.2,97.9,28.8,98.2,30.4z"/>
	</g>
</g>
</svg>
