<?xml version="1.0" encoding="utf-8"?>
<!-- Generator: Adobe Illustrator 27.7.0, SVG Export Plug-In . SVG Version: 6.00 Build 0)  -->
<svg version="1.1" id="Layer_1" xmlns="http://www.w3.org/2000/svg" xmlns:xlink="http://www.w3.org/1999/xlink" x="0px" y="0px"
	 viewBox="0 0 100 100" style="enable-background:new 0 0 100 100;" xml:space="preserve">
<g id="P5w62F_00000096041554355576470740000016413561432840451760_">
	<g>
		<path d="M50,79.3c-16.2,0-32.5,0-48.7,0c-1.3,0-1.4,0-1.2-1.3C0.9,71.4,2.9,65.1,6,59.2c2.7-5.1,5.9-9.8,10.1-13.7
			c2.7-2.6,5.7-4.8,8.9-6.7c1-0.6,1-0.6,0.4-1.6c-2.5-4.2-5-8.5-7.5-12.7c-0.3-0.6-0.6-1.1-0.5-1.9c0.2-0.9,0.7-1.6,1.7-1.8
			c0.9-0.2,1.7,0.1,2.3,0.9c0.4,0.7,0.8,1.4,1.3,2.1c2.3,3.9,4.6,7.7,6.9,11.6c0.4,0.7,0.8,0.9,1.6,0.6c7.6-2.9,15.4-3.8,23.4-3.2
			c5,0.4,9.8,1.4,14.5,3.2c0.7,0.3,1,0.1,1.4-0.5c2.6-4.5,5.3-9,7.9-13.4c1-1.7,3.1-1.8,4-0.2c0.5,0.8,0.3,1.7-0.2,2.5
			c-2.1,3.6-4.3,7.3-6.4,10.9c-0.4,0.7-0.8,1.5-1.3,2.2c-0.5,0.7-0.3,1,0.4,1.4c5.8,3.3,10.5,7.6,14.4,13
			c5.7,7.9,9.3,16.7,10.8,26.4c0.2,1.1,0.1,1.1-1,1.1C82.6,79.3,66.3,79.3,50,79.3z M72.9,64.5c2.3,0,4-1.7,4-4c0-2.3-1.7-4-4-4
			c-2.3,0-4,1.8-4,4C68.9,62.8,70.7,64.5,72.9,64.5z M27.1,56.5c-2.3,0-4,1.7-4.1,4c0,2.3,1.7,4.1,4,4.1c2.3,0,4-1.8,4-4
			C31.1,58.3,29.4,56.5,27.1,56.5z"/>
	</g>
</g>
</svg>
