<?xml version="1.0" encoding="utf-8"?>
<!-- Generator: Adobe Illustrator 27.7.0, SVG Export Plug-In . SVG Version: 6.00 Build 0)  -->
<svg version="1.1" id="Layer_1" xmlns="http://www.w3.org/2000/svg" xmlns:xlink="http://www.w3.org/1999/xlink" x="0px" y="0px"
	 viewBox="0 0 100 100" style="enable-background:new 0 0 100 100;" xml:space="preserve">
<g>
	<path d="M89.8,49.3c-4.7-4.7-10.6-7.4-16.8-8.1V16.2L59.8,4.3H49.4h-1.1H20h-2.6c-6.2,0-11.3,5.1-11.3,11.3v0v58.1
		c0,6.2,5.1,11.3,11.3,11.3c0,0,0,0,0,0H20h1.2v0h24.5c1.1,1.6,2.3,3.1,3.7,4.5c5.6,5.6,12.9,8.4,20.2,8.4s14.6-2.8,20.2-8.4
		C100.9,78.5,100.9,60.4,89.8,49.3z M55.4,85.1C55.4,85.1,55.4,85.1,55.4,85.1c-0.3-0.2-0.5-0.4-0.8-0.6c-2.4-2.4-4.2-5.3-5.2-8.5
		c-0.7-2.1-1-4.3-1-6.5c0-0.9,0.1-1.8,0.2-2.7c0.1-1.1,0.4-2.2,0.7-3.2c0.1-0.2,0.1-0.4,0.2-0.6c0.3-0.9,0.7-1.8,1.1-2.6
		c1-2.1,2.4-4.1,4.1-5.8c0,0,0,0,0.1-0.1c1-1,2-1.8,3.1-2.5c3.6-2.4,7.8-3.7,11.9-3.7c1.1,0,2.3,0.1,3.4,0.3
		c4.2,0.7,8.3,2.6,11.6,5.9c8.3,8.3,8.3,21.7,0,30C76.6,92.5,63.7,92.7,55.4,85.1z M57.7,8.1l11.8,11.1H57.7V8.1z M20,23
		c0.3-0.1,0.7-0.2,1.1-0.2h0.1h1.4h9.8h17h1.9h6.4h0.1c1.8,0,3.2,1.4,3.2,3.2s-1.4,3.2-3.2,3.2h-0.1h-5.7h-2.5h-17h-9.8h-1.4h-0.1
		c-0.4,0-0.7-0.1-1.1-0.2c-1.2-0.4-2.1-1.6-2.1-3C17.9,24.6,18.7,23.5,20,23z M20,41.6c0.3-0.1,0.7-0.2,1.1-0.2h0.1h28.2h3.8h4.5
		h0.1c1,0,1.8,0.5,2.4,1.2c-0.9,0.3-1.7,0.6-2.5,1c-0.7,0.3-1.4,0.6-2,1c-0.7,0.4-1.4,0.8-2,1.2c-0.9,0.6-1.8,1.3-2.6,2h-1.6H21.2
		h-0.1c-0.4,0-0.7-0.1-1.1-0.2c-1.2-0.4-2.1-1.6-2.1-3C17.9,43.2,18.7,42,20,41.6z M21.1,66.7c-0.4,0-0.7-0.1-1.1-0.2
		c-1.2-0.4-2.1-1.6-2.1-3s0.9-2.5,2.1-3c0.3-0.1,0.7-0.2,1.1-0.2h0.1h21.4c-0.4,1.1-0.7,2.1-0.9,3.2c-0.2,1.1-0.4,2.1-0.5,3.2H21.1
		L21.1,66.7z"/>
	<path d="M78.7,66.7H73h-0.6v-6.3c0-1.5-1.2-2.8-2.8-2.8s-2.8,1.2-2.8,2.8v6.3h-6.3c-1.5,0-2.8,1.2-2.8,2.8s1.2,2.8,2.8,2.8h6.3v6.3
		c0,1.5,1.2,2.8,2.8,2.8c0.3,0,0.6-0.1,0.9-0.2c1.1-0.4,1.9-1.4,1.9-2.6v-0.7v-5.6H73h5.7c1.5,0,2.8-1.2,2.8-2.8
		S80.2,66.7,78.7,66.7z"/>
</g>
</svg>
