<svg xmlns="http://www.w3.org/2000/svg" width="67.226" height="72.25" viewBox="0 0 67.226 72.25">
  <g id="Group_2216" data-name="Group 2216" transform="translate(-1479.957 -325.454)">
    <path id="Path_1998" data-name="Path 1998" d="M59.783,40.383V18.852L49.974,10h-31.1A8.477,8.477,0,0,0,10.5,18.373V61.2a8.477,8.477,0,0,0,8.373,8.373H37.295A21.09,21.09,0,0,0,77.726,61.2,21.532,21.532,0,0,0,59.783,40.383ZM56.434,76.747a15.167,15.167,0,0,1-13.158-7.416,16.312,16.312,0,0,1-2.392-8.373,12.875,12.875,0,0,1,.957-5.263,18.7,18.7,0,0,1,2.632-4.785,15.97,15.97,0,0,1,11.962-5.742,14.12,14.12,0,0,1,3.349.478,15.754,15.754,0,0,1-3.349,31.1ZM48.539,12.632l8.613,8.134H48.539Zm-27.034,11H48.539a2.392,2.392,0,0,1,0,4.785H21.5a2.4,2.4,0,0,1-2.392-2.392A2.563,2.563,0,0,1,21.5,23.637Zm0,13.637H48.539a2.4,2.4,0,0,1,2.392,2.392,3.4,3.4,0,0,1-.478,1.435,2.953,2.953,0,0,1-1.914.957H21.5a2.4,2.4,0,0,1-2.392-2.392A2.563,2.563,0,0,1,21.5,37.273ZM36.1,55.934H21.5a2.4,2.4,0,0,1-2.392-2.392A2.26,2.26,0,0,1,21.5,51.149H38.012A16.7,16.7,0,0,0,36.1,55.934Z" transform="translate(1469.457 315.454)"/>
    <path id="Path_1999" data-name="Path 1999" d="M41.567,38.126a1.827,1.827,0,0,0-.479-1.2,1.9,1.9,0,0,0-2.632-.239L36.3,38.6V29.514a1.914,1.914,0,0,0-3.828,0v9.33L30.084,36.93A1.869,1.869,0,1,0,27.691,39.8l6.7,5.5,6.459-5.5a2.584,2.584,0,0,0,.718-1.675Z" transform="translate(1492.458 339.959)"/>
  </g>
</svg>
