<?xml version="1.0" encoding="utf-8"?>
<!-- Generator: Adobe Illustrator 27.7.0, SVG Export Plug-In . SVG Version: 6.00 Build 0)  -->
<svg version="1.1" id="Layer_1" xmlns="http://www.w3.org/2000/svg" xmlns:xlink="http://www.w3.org/1999/xlink" x="0px" y="0px"
	 viewBox="0 0 100 100" style="enable-background:new 0 0 100 100;" xml:space="preserve">
<g>
	<path d="M86.9,23.2L86.9,23.2c0-5.5-4.5-10-10-10H10c-5.5,0-10,4.5-10,10v4.2h86.9V23.2z"/>
	<path d="M86.9,38.8v-3.7H0v29.6c0,5.8,4.7,10.5,10.5,10.5c0,0,0,0,0,0h40.4c4.6,7.7,13,12.8,22.6,12.8C88.1,88,100,76.2,100,61.6
		C100,51.9,94.7,43.4,86.9,38.8z M73.5,81.2c-5.5,0-10.5-2.3-14.1-6c-3.4-3.5-5.5-8.4-5.5-13.7c0-10.8,8.8-19.7,19.7-19.7
		c5.2,0,9.9,2,13.4,5.3c3.8,3.6,6.3,8.7,6.3,14.4C93.2,72.4,84.4,81.2,73.5,81.2z"/>
	<path d="M85.8,58.2h-8.8v-8.8c0-1.9-1.5-3.4-3.4-3.4s-3.4,1.5-3.4,3.4v8.8h-8.8c-1.9,0-3.4,1.5-3.4,3.4c0,1.9,1.5,3.4,3.4,3.4h8.8
		v8.8c0,1.9,1.5,3.4,3.4,3.4s3.4-1.5,3.4-3.4V65h8.8c1.9,0,3.4-1.5,3.4-3.4C89.2,59.7,87.6,58.2,85.8,58.2z"/>
</g>
</svg>
