<?xml version="1.0" encoding="utf-8"?>
<!-- Generator: Adobe Illustrator 27.7.0, SVG Export Plug-In . SVG Version: 6.00 Build 0)  -->
<svg version="1.0" id="Layer_1" xmlns="http://www.w3.org/2000/svg" xmlns:xlink="http://www.w3.org/1999/xlink" x="0px" y="0px"
	 viewBox="0 0 100 100" style="enable-background:new 0 0 100 100;" xml:space="preserve">
<path d="M92.4,61.1l-38-38c-1.4-1.4-3.3-2.2-5.3-2.2l-5.5,0c0,3.4-0.5,8.9-1.4,12.2c1.9,1.5,3.1,3.9,3.1,6.5c0,4.6-3.8,8.4-8.4,8.4
	c-4.6,0-8.4-3.8-8.4-8.4c0-3.9,2.7-7.2,6.4-8.1c0.2,0,0.3-0.1,0.5-0.1c0.5-0.1,1-0.1,1.5-0.1c0.5,0,0.9,0,1.4,0.1
	c0.7-2.5,1.1-5.2,1.1-7.9c0-0.8,0-1.7-0.1-2.5c0-0.2,0-0.3-0.1-0.5C38.2,9.6,31.1,1.2,22.4,1.2C13,1.2,5.4,11.2,5.4,23.4
	c0,9.7,4.8,17.9,11.5,20.9v9.1c0,2,0.8,3.9,2.2,5.3l38,38c2.9,2.9,7.7,2.9,10.6,0l24.9-24.9C95.4,68.8,95.4,64.1,92.4,61.1z
	 M16.8,28.3v7c-2.4-2.7-4.1-7.1-4.1-11.9c0-8,4.4-14.7,9.7-14.7c4.7,0,8.7,5.4,9.5,12.2l-7.6,0C20.2,20.8,16.8,24.2,16.8,28.3z"/>
</svg>
