<?xml version="1.0" encoding="utf-8"?>
<!-- Generator: Adobe Illustrator 27.7.0, SVG Export Plug-In . SVG Version: 6.00 Build 0)  -->
<svg version="1.0" id="Layer_1" xmlns="http://www.w3.org/2000/svg" xmlns:xlink="http://www.w3.org/1999/xlink" x="0px" y="0px"
	 viewBox="0 0 120.5 100" style="enable-background:new 0 0 120.5 100;" xml:space="preserve">
<path d="M12.2,99.6c-2.7,0-5.4-1-7.4-3.1c-4.1-4.1-4.1-10.7,0-14.8l30.8-30.8L3.1,18.3C-1,14.2-1,7.6,3.1,3.5
	c4.1-4.1,10.7-4.1,14.8,0l47.4,47.4L19.6,96.5C17.6,98.5,14.9,99.6,12.2,99.6z"/>
<path d="M67.5,99.6c-2.7,0-5.4-1-7.4-3.1c-4.1-4.1-4.1-10.7,0-14.8l30.8-30.8L58.3,18.3c-4.1-4.1-4.1-10.7,0-14.8
	c4.1-4.1,10.7-4.1,14.8,0l47.4,47.4L74.9,96.5C72.9,98.5,70.2,99.6,67.5,99.6z"/>
</svg>
