<?xml version="1.0" encoding="utf-8"?>
<!-- Generator: Adobe Illustrator 27.7.0, SVG Export Plug-In . SVG Version: 6.00 Build 0)  -->
<svg version="1.1" id="Layer_1" xmlns="http://www.w3.org/2000/svg" xmlns:xlink="http://www.w3.org/1999/xlink" x="0px" y="0px"
	 viewBox="0 0 100 100" style="enable-background:new 0 0 100 100;" xml:space="preserve">
<path d="M87.1,11.5L87.1,11.5H18.2c-7.2,0-13,5.8-13,13V26c-3.1,1.8-5.3,5.1-5.3,9v4.3h89.5v-4.3c0,0,0,0,0,0
	c0-5.7-4.6-10.3-10.3-10.3H10.6v-0.1c0-4.2,3.4-7.6,7.6-7.6h68.9h0c4.2,0,7.6,3.4,7.6,7.6v42.7c0,3.5-2.2,6.4-5.3,7.6V47.2H-0.1
	v30.5c0,6,4.8,10.8,10.8,10.8c0,0,0,0,0,0h67.9c5,0,9.2-3.4,10.4-8c6.3-1.2,11-6.6,11-13.2V24.5C100.1,17.3,94.2,11.5,87.1,11.5z"/>
</svg>
