<?xml version="1.0" encoding="utf-8"?>
<!-- Generator: Adobe Illustrator 27.7.0, SVG Export Plug-In . SVG Version: 6.00 Build 0)  -->
<svg version="1.1" id="Layer_1" xmlns="http://www.w3.org/2000/svg" xmlns:xlink="http://www.w3.org/1999/xlink" x="0px" y="0px"
	 viewBox="0 0 100 100" style="enable-background:new 0 0 100 100;" xml:space="preserve">
<g id="Group_505" transform="translate(0 169.161)">
	<g>
			<path id="Path_495" d="M100-106.5c-0.4,0-0.8,0-1.2,0H1.4c-1.3,0-1.3,0-1.3-1.3c-0.1-2.9-0.1-5.7,0.2-8.6c0.8-5,5.1-8.7,10.1-8.9
				c0.3,0,0.6,0,0.9,0c25.9,0,51.7,0,77.6,0c4.8-0.2,9.2,2.9,10.7,7.5c0.2,0.6,0.3,1.2,0.5,1.9L100-106.5z"/>
			<path id="Path_496" d="M2.4-81.7c-1.6-0.6-2.6-2.3-2.4-4c0.1-4.6,0.1-9.2,0-13.7c0-0.9,0.2-1.2,1.2-1.2c32.5,0,65,0,97.5,0
				c0.5,0,0.9,0,1.4,0v16.6c-0.4,1.1-1.2,2-2.3,2.3h-1.2c-1.7-0.5-2.7-2.3-2.3-4c0-0.3,0-0.7,0-1c0-1.5,0.2-1.3-1.3-1.3
				C64.5-88,36.3-88,8-88c-2.1,0-2.2,0-2.1,2.1c0.3,1.8-0.7,3.6-2.4,4.2L2.4-81.7z"/>
			<path id="Path_497" d="M50.1-156.6c8.7,0,17.4,0,26.1,0c5.3-0.2,9.9,3.4,11,8.5c0.2,0.9,0.3,1.7,0.3,2.6c0,4.5,0,9,0,13.5
				c0,0.8-0.2,1-1,1c-4.6,0-9.2,0-13.8,0c-0.8,0-1.1-0.2-1-1c0.3-3.4-0.9-6.7-3.4-9c-2.1-2-4.8-3-7.6-2.9c-7.2,0-14.3,0-21.5,0
				c-5.9-0.2-10.8,4.5-11,10.4c0,0.3,0,0.5,0,0.8c0,1.8,0,1.8-1.8,1.8c-4.3,0-8.6,0-13,0c-0.8,0-1-0.2-1-1c0-4.5,0-9,0-13.5
				c-0.2-6,4.5-10.9,10.5-11.1c0.2,0,0.4,0,0.6,0C32.5-156.6,41.3-156.6,50.1-156.6"/>
			<path id="Path_498" d="M50-131.1c-5,0-9.9,0-14.9,0c-0.7,0-1-0.2-0.9-0.9c0-0.8,0-1.7,0.2-2.5c0.6-2.2,2.6-3.8,4.9-3.7
				c2.7,0,5.5,0,8.2,0c4.4,0,8.7,0,13.1,0c3.7-0.1,5.9,2.5,5.5,6.7c-0.1,0.7-0.6,0.4-0.9,0.4C60-131.1,55-131.1,50-131.1"/>
	</g>
</g>
</svg>
