<?xml version="1.0" encoding="utf-8"?>
<!-- Generator: Adobe Illustrator 27.7.0, SVG Export Plug-In . SVG Version: 6.00 Build 0)  -->
<svg version="1.1" id="Layer_1" xmlns="http://www.w3.org/2000/svg" xmlns:xlink="http://www.w3.org/1999/xlink" x="0px" y="0px"
	 viewBox="0 0 100 100" style="enable-background:new 0 0 100 100;" xml:space="preserve">
<path d="M93.7,84.8L67.8,59c4-5.7,6.3-12.6,6.3-20.1c0-19.5-15.9-35.3-35.3-35.3C19.3,3.5,3.4,19.4,3.4,38.9s15.9,35.3,35.3,35.3
	c8.1,0,15.5-2.7,21.4-7.3l25.7,25.7c1.1,1.1,2.5,1.6,3.9,1.6s2.8-0.5,3.9-1.6C95.8,90.5,95.8,87,93.7,84.8z M38.8,63.2
	c-13.4,0-24.3-10.9-24.3-24.3s10.9-24.3,24.3-24.3c13.4,0,24.3,10.9,24.3,24.3S52.2,63.2,38.8,63.2z"/>
</svg>
