<?xml version="1.0" encoding="utf-8"?>
<!-- Generator: Adobe Illustrator 27.7.0, SVG Export Plug-In . SVG Version: 6.00 Build 0)  -->
<svg version="1.1" id="Layer_1" xmlns="http://www.w3.org/2000/svg" xmlns:xlink="http://www.w3.org/1999/xlink" x="0px" y="0px"
	 viewBox="0 0 100 100" style="enable-background:new 0 0 100 100;" xml:space="preserve">
<g>
	<path d="M86.9,27.4L86.9,27.4c0-5.5-4.5-10-10-10H10c-5.5,0-10,4.5-10,10v4.2h86.9V27.4z"/>
	<path d="M86.9,43v-3.7H0V69c0,5.8,4.7,10.5,10.5,10.5c0,0,0,0,0,0h40.4c4.6,7.7,13,12.8,22.6,12.8c14.6,0,26.5-11.9,26.5-26.5
		C100,56.1,94.7,47.6,86.9,43z M73.5,85.5c-5.5,0-10.5-2.3-14.1-6c-3.4-3.5-5.5-8.4-5.5-13.7c0-10.8,8.8-19.7,19.7-19.7
		c5.2,0,9.9,2,13.4,5.3c3.8,3.6,6.3,8.7,6.3,14.4C93.2,76.6,84.4,85.5,73.5,85.5z"/>
	<path d="M68.5,59.5c0.3-0.2,0.6-0.4,0.9-0.6c0.1-0.1,0.2-0.1,0.3-0.2c0.3-0.1,0.6-0.3,0.9-0.4c0.2-0.1,0.3-0.1,0.6-0.2
		c0.3-0.1,0.5-0.2,0.8-0.2c0.2,0,0.5-0.1,0.8-0.1c0.1,0,0.2,0,0.3,0c0.1,0,0.2,0,0.3,0c1.3,0,2.4-1.2,2.4-2.5c0-1.3-1.1-2.3-2.4-2.4
		l-0.1,0l-0.1,0c-0.1,0-0.2,0-0.3,0l-0.2,0c-0.2,0-0.3,0-0.5,0c-0.3,0-0.5,0.1-0.8,0.1L71,53.1c-0.3,0.1-0.6,0.1-1,0.2
		c-4.7,1.3-8.3,5.3-9.2,10.1H56l7.3,7.3l7.3-7.3h-4.8c0.5-1.5,1.3-2.8,2.5-3.8l-0.2-0.4c0,0,0,0,0,0L68.5,59.5z"/>
	<path d="M83.7,60.8l-7.3,7.3h4.8c-0.5,1.5-1.3,2.8-2.5,3.8l0.3,0.4l-0.5-0.2c-0.3,0.2-0.6,0.4-0.9,0.6l-0.3,0.2
		c-0.3,0.1-0.6,0.3-0.9,0.4c-0.2,0.1-0.4,0.1-0.6,0.2c-0.3,0.1-0.5,0.2-0.8,0.2c-0.2,0-0.5,0.1-0.8,0.1c-0.1,0-0.2,0-0.3,0
		c-0.1,0-0.2,0-0.3,0c-0.7,0-1.3,0.3-1.7,0.8c-0.4,0.5-0.7,1.1-0.7,1.7c0,1.3,1.1,2.3,2.3,2.4l0.2,0l0.1,0c0.1,0,0.2,0,0.3,0l0.2,0
		c0.2,0,0.3,0,0.5,0c0.3,0,0.5-0.1,0.8-0.1l0.4-0.1c0.3-0.1,0.6-0.1,1-0.2c4.7-1.3,8.3-5.2,9.2-10.1h4.8L83.7,60.8z"/>
</g>
</svg>
