<?xml version="1.0" encoding="utf-8"?>
<!-- Generator: Adobe Illustrator 27.7.0, SVG Export Plug-In . SVG Version: 6.00 Build 0)  -->
<svg version="1.1" id="Layer_1" xmlns="http://www.w3.org/2000/svg" xmlns:xlink="http://www.w3.org/1999/xlink" x="0px" y="0px"
	 viewBox="0 0 100 100" style="enable-background:new 0 0 100 100;" xml:space="preserve">
<g>
	<path d="M99.7,42c0-2.9-1.8-4.7-4.8-4.7c-1.2,0-2.3,0-3.4,0c-0.8-2.7-1.9-5.3-3.2-7.7c0.8-0.7,1.6-1.5,2.5-2.5c1.9-2,1.9-4.6,0-6.6
		c-3.9-3.9-7.7-7.7-11.3-11.3c-2.1-2.1-4.7-2.1-6.8,0c-0.8,0.7-1.6,1.5-2.4,2.4c-2.3-1.3-4.9-2.3-7.7-3.2c0-1.3,0-2.5,0-3.6
		c-0.1-2.8-1.9-4.5-4.7-4.6c-5.1,0-10.5,0-15.9,0c-2.9,0-4.7,1.8-4.8,4.7c0,1.1,0,2.3,0,3.5c-2.9,0.9-5.4,1.9-7.7,3.2
		c-0.7-0.8-1.5-1.5-2.4-2.4c-2.1-2-4.7-2-6.8,0c-3.6,3.5-7.3,7.2-11.3,11.3C7,22.4,7,25,8.9,27c0.9,0.9,1.7,1.7,2.5,2.5
		c-1.4,2.5-2.4,5-3.2,7.7c-1.1,0-2.3,0-3.4,0C1.9,37.3,0,39.1,0,42c0,1.9,0,3.7,0,5.6l0,0.5l0,4.2c0,1.9,0,3.8,0,5.6
		c0,2.9,1.8,4.7,4.7,4.8c1.3,0,2.4,0,3.5,0c0.8,2.7,1.9,5.3,3.2,7.7c-0.9,0.8-1.7,1.7-2.6,2.6c-1.9,1.9-1.8,4.5,0,6.4
		c4.1,4.1,7.8,7.9,11.5,11.5c1.9,1.9,4.5,1.9,6.5,0c0.8-0.8,1.7-1.6,2.6-2.5c2.3,1.3,4.9,2.3,7.7,3.2c0,1.3,0,2.4,0,3.5
		c0.1,2.9,1.9,4.7,4.8,4.7c2.6,0,5.2,0,7.9,0c2.6,0,5.3,0,7.9,0c3,0,4.8-1.7,4.8-4.8c0-1.2,0-2.4,0-3.5c2.9-0.9,5.4-1.9,7.7-3.2
		c0.7,0.8,1.6,1.6,2.5,2.5c2,1.9,4.6,1.9,6.5,0c3.9-3.8,7.7-7.7,11.5-11.5c1.9-1.9,1.9-4.5,0-6.5c-0.9-1-1.8-1.8-2.5-2.5
		c1.4-2.5,2.4-5.1,3.2-7.7c1.3,0,2.4,0,3.5,0c2.9-0.1,4.7-1.9,4.7-4.7C99.8,52.3,99.8,47,99.7,42z M66.6,66.6
		c-4.5,4.5-10.6,7-16.8,7c0,0,0,0,0,0h0c-6.4,0-12.6-2.7-17-7.2c-4.4-4.6-6.8-10.7-6.6-17.3c0.2-6,2.6-11.7,7-16
		c4.4-4.4,10.4-6.8,16.7-6.8c0,0,0,0,0,0c13.2,0,23.6,10.5,23.6,23.9C73.5,56.4,71.1,62.2,66.6,66.6z"/>
</g>
</svg>
