<?xml version="1.0" encoding="utf-8"?>
<!-- Generator: Adobe Illustrator 26.0.2, SVG Export Plug-In . SVG Version: 6.00 Build 0)  -->
<svg version="1.1" xmlns="http://www.w3.org/2000/svg" xmlns:xlink="http://www.w3.org/1999/xlink" x="0px" y="0px"
	 viewBox="0 0 82.67 40.63" style="enable-background:new 0 0 82.67 40.63;" xml:space="preserve">
<style type="text/css">
	.st0{fill:none;}
	.st1{fill:#2088C9;}
	.st2{fill:#2086C8;}
	.st3{fill:#5188C7;}
	.st4{fill:#FFFFFF;}
	.st5{fill:#008AD0;}
	.st6{fill:#2685C7;}
</style>
<g>
	<g>
		<path class="st2" d="M47.14,1.14l-31.4,31.41c-0.39,0.39-1.03,0.39-1.43,0l-7.67-7.67c-1.52-1.52-3.98-1.52-5.5,0
			s-1.52,3.98,0,5.5l7.54,7.54c1.61,1.61,3.75,2.62,6.03,2.7c2.47,0.09,4.8-0.83,6.53-2.57l31.4-31.41c1.52-1.52,1.52-3.98,0-5.5
			l0,0C51.13-0.38,48.66-0.38,47.14,1.14z"/>
	</g>
	<g>
		<path class="st2" d="M76.03,1.14l-31.4,31.41c-0.39,0.39-1.03,0.39-1.43,0l-7.67-7.67c-1.52-1.52-3.98-1.52-5.5,0
			c-1.52,1.52-1.52,3.98,0,5.5l7.54,7.54c1.61,1.61,3.75,2.62,6.03,2.7c2.47,0.09,4.8-0.83,6.53-2.57l31.4-31.41
			c1.52-1.52,1.52-3.98,0-5.5l0,0C80.02-0.38,77.55-0.38,76.03,1.14z"/>
	</g>
</g>
</svg>
