<?xml version="1.0" encoding="utf-8"?>
<!-- Generator: Adobe Illustrator 27.7.0, SVG Export Plug-In . SVG Version: 6.00 Build 0)  -->
<svg version="1.1" id="Layer_1" xmlns="http://www.w3.org/2000/svg" xmlns:xlink="http://www.w3.org/1999/xlink" x="0px" y="0px"
	 viewBox="0 0 100 100" style="enable-background:new 0 0 100 100;" xml:space="preserve">
<g id="MfauAi.tif">
	<g>
		<path d="M92.1,73.3c0,0,0,0.1,0,0.1c0,0.1-0.1,0.2-0.1,0.3c-0.8,2.4-1.8,4.8-2.9,7.1c-2.4,4.8-5.5,9.2-9.1,13.3
			c-1.4,1.6-3,3-4.9,4.1c-2.4,1.4-4.9,1.9-7.6,1.6c-1.9-0.3-3.8-0.8-5.6-1.5c-1.4-0.5-2.7-1.1-4.1-1.5c-2.5-0.7-5-1-7.6-0.7
			c-2.3,0.2-4.4,0.8-6.5,1.6c-1.9,0.7-3.8,1.5-5.8,1.9c-1.3,0.3-2.6,0.5-3.9,0.3c-1.4-0.1-2.7-0.6-3.9-1.2c-1.6-0.8-3-2-4.4-3.2
			c-1.6-1.5-3-3.2-4.3-4.9c-3.1-3.9-5.7-8.1-7.8-12.6c-3-6.7-5-13.7-5.4-21c-0.1-2-0.1-3.9,0-5.9c0.1-1.7,0.3-3.4,0.7-5.1
			c0.9-4.6,2.8-8.7,5.7-12.4c2.9-3.7,6.6-6.4,11-8c1.8-0.7,3.7-1.1,5.7-1.4c1-0.1,2-0.2,3-0.2c1.1,0,2.2,0.2,3.3,0.4
			c2.2,0.5,4.3,1.2,6.3,2c1.8,0.7,3.6,1.3,5.5,1.8c1,0.3,2,0.3,3,0c1.5-0.4,3-0.9,4.4-1.4c2.1-0.7,4.2-1.5,6.3-2.1
			c2.8-0.7,5.6-1.1,8.4-0.8c2,0.2,4,0.6,6,1.2c4.9,1.5,8.8,4.3,11.8,8.4c0.2,0.3,0.2,0.3-0.1,0.5c-2.2,1.4-4.2,2.9-5.9,4.9
			c-3.2,3.6-4.8,7.9-5,12.7c-0.1,1.5,0,3.1,0.2,4.6c0.3,2.1,0.9,4.2,1.8,6.1c2,4.2,5.2,7.3,9.1,9.7C90.3,72.4,91.2,72.9,92.1,73.3z"
			/>
		<path d="M70.9,0C71,0.2,71,0.5,71,0.7c0.3,4.3-0.8,8.3-3,12c-2.2,3.5-4.9,6.4-8.4,8.6c-1.9,1.2-4,2-6.3,2.3
			c-1,0.1-1.9,0.2-2.9,0.1c-0.2,0-0.3-0.1-0.3-0.3C50,22.5,50,21.6,50,20.7c0.1-1.8,0.5-3.5,1.1-5.2c2.2-6,6.2-10.6,12-13.3
			c1.8-0.9,3.7-1.6,5.8-1.9c0.6-0.1,1.2-0.2,1.8-0.2C70.7,0,70.8,0,70.9,0C70.9,0,70.9,0,70.9,0z"/>
	</g>
</g>
</svg>
