<?xml version="1.0" encoding="utf-8"?>
<!-- Generator: Adobe Illustrator 27.7.0, SVG Export Plug-In . SVG Version: 6.00 Build 0)  -->
<svg version="1.1" id="Layer_1" xmlns="http://www.w3.org/2000/svg" xmlns:xlink="http://www.w3.org/1999/xlink" x="0px" y="0px"
	 viewBox="0 0 100 100" style="enable-background:new 0 0 100 100;" xml:space="preserve">
<path d="M15.7,84.3c18.9,18.9,49.6,18.9,68.5,0s18.9-49.6,0-68.5c-18.9-18.9-49.6-18.9-68.5,0C-3.2,34.7-3.2,65.3,15.7,84.3z
	 M53.8,76c-2,2.1-5.6,2.1-7.7,0c-1-1-1.6-2.4-1.6-3.8c0-1.5,0.6-2.9,1.6-3.9c0.3-0.3,0.5-0.5,0.8-0.7c0.3-0.2,0.6-0.3,0.9-0.5
	c0.3-0.1,0.7-0.2,1-0.3s0.7-0.1,1-0.1c0.4,0,0.7,0,1.1,0.1c0.3,0.1,0.7,0.2,1,0.3c0.3,0.2,0.6,0.3,0.9,0.5c0.3,0.2,0.6,0.4,0.8,0.7
	c1,1,1.6,2.4,1.6,3.9C55.4,73.7,54.9,75.1,53.8,76z M44.6,27.8c0-3,2.4-5.4,5.4-5.4s5.4,2.4,5.4,5.4v25.8c0,3-2.4,5.4-5.4,5.4
	s-5.4-2.4-5.4-5.4V27.8z"/>
</svg>
