<?xml version="1.0" encoding="utf-8"?>
<!-- Generator: Adobe Illustrator 27.7.0, SVG Export Plug-In . SVG Version: 6.00 Build 0)  -->
<svg version="1.1" id="Layer_1" xmlns="http://www.w3.org/2000/svg" xmlns:xlink="http://www.w3.org/1999/xlink" x="0px" y="0px"
	 viewBox="0 0 100 100" style="enable-background:new 0 0 100 100;" xml:space="preserve">
<path d="M83.1,16.9c-18.3-18.3-47.9-18.3-66.1,0c-18.3,18.3-18.3,47.9,0,66.1c18.3,18.3,47.9,18.3,66.1,0
	C101.3,64.8,101.3,35.2,83.1,16.9z M36.2,53.7c-1,1-2.3,1.5-3.7,1.5c-0.4,0-0.7,0-1-0.1c-0.3-0.1-0.7-0.2-1-0.3
	c-0.3-0.2-0.6-0.3-0.9-0.5c-0.3-0.2-0.5-0.4-0.8-0.7c-1-1-1.5-2.3-1.5-3.7c0-1.4,0.5-2.8,1.5-3.7c0.2-0.2,0.5-0.5,0.8-0.7
	c0.3-0.2,0.6-0.3,0.9-0.5c0.3-0.1,0.7-0.2,1-0.3c0.7-0.1,1.4-0.1,2,0c0.4,0.1,0.7,0.2,1,0.3c0.3,0.2,0.6,0.3,0.9,0.5
	c0.3,0.2,0.5,0.4,0.8,0.7c1,1,1.6,2.3,1.6,3.7C37.8,51.4,37.2,52.7,36.2,53.7z M53.7,53.7c-0.9,1-2.3,1.5-3.7,1.5
	c-1.4,0-2.7-0.5-3.7-1.5c-1-0.9-1.6-2.3-1.6-3.7c0-1.4,0.6-2.7,1.6-3.7c1.2-1.2,3-1.8,4.7-1.4c0.3,0.1,0.7,0.2,1,0.3
	c0.3,0.1,0.6,0.3,0.9,0.5c0.3,0.2,0.5,0.4,0.8,0.7c1,0.9,1.5,2.3,1.5,3.7C55.2,51.4,54.7,52.7,53.7,53.7z M71.2,53.7
	c-1,1-2.3,1.5-3.7,1.5c-0.3,0-0.7,0-1-0.1c-0.3-0.1-0.7-0.2-0.9-0.3c-0.3-0.2-0.6-0.3-0.9-0.5c-0.3-0.2-0.6-0.4-0.8-0.7
	c-1-0.9-1.6-2.3-1.6-3.7c0-1.4,0.6-2.8,1.6-3.7c1.2-1.2,3-1.8,4.7-1.4c0.3,0.1,0.7,0.2,1,0.3c0.3,0.1,0.6,0.3,0.9,0.5
	c0.3,0.2,0.5,0.4,0.8,0.7c1,0.9,1.5,2.3,1.5,3.7C72.7,51.4,72.2,52.7,71.2,53.7z"/>
</svg>
