<?xml version="1.0" encoding="utf-8"?>
<!-- Generator: Adobe Illustrator 27.7.0, SVG Export Plug-In . SVG Version: 6.00 Build 0)  -->
<svg version="1.1" id="Layer_1" xmlns="http://www.w3.org/2000/svg" xmlns:xlink="http://www.w3.org/1999/xlink" x="0px" y="0px"
	 viewBox="0 0 100 100" style="enable-background:new 0 0 100 100;" xml:space="preserve">
<path d="M96.7,45.5c0-0.9,0-1.9,0-2.8c0-1.8-1.1-3-2.9-3.2c-0.8-0.1-1.7-0.2-2.5-0.4c-1.7-0.2-3.4-0.5-5.1-0.7
	c-1.4-0.2-2.5-0.6-3.7-1.2c-5.7-3.3-11.9-5.4-18.6-6.3c-4.6-0.6-9.5-0.7-14.5-0.2c-4.8,0.5-9.6,1.7-14.4,3.6
	c-2.7,1.1-5.3,2.5-7.7,3.9c-0.7,0.4-1.3,0.7-2,1.1c-0.3,0.1-0.5,0.2-0.7,0.2c-4.3,0.1-8.6,1-12.7,2.7c-1.4,0.6-2.9,1.3-4.5,2.2
	c-1.9,1.1-3.2,2.7-4,5.1l-0.1,0.2v12.3l0.4,0.4c0.7,0.9,1.8,1.3,3.1,1.3c0.8,0,1.5,0,2.4,0c0.4,0,0.8,0,1.2,0c1.7,3.7,5.4,6,9.4,6
	c0,0,0,0,0.1,0c4.1,0,7.8-2.3,9.6-6c12.7,0,25.5,0,38.2,0c1.8,3.8,5,5.9,9.2,6c4.4,0.1,7.8-1.9,9.9-6l0-0.1c0.4,0,0.7-0.2,0.9-0.3
	l0.1,0c1.4-0.6,2.9-1.1,4.3-1.7c3.1-1.2,4.8-3.8,4.8-7.1c0-1.8,0-3.6,0-5.5l0-2.3L96.7,45.5z"/>
</svg>
