<?xml version="1.0" encoding="utf-8"?>
<!-- Generator: Adobe Illustrator 25.2.0, SVG Export Plug-In . SVG Version: 6.00 Build 0)  -->
<svg version="1.1" xmlns="http://www.w3.org/2000/svg" xmlns:xlink="http://www.w3.org/1999/xlink" x="0px" y="0px"
	 viewBox="0 0 52.6 49.51" style="enable-background:new 0 0 52.6 49.51;" xml:space="preserve">
<style type="text/css">
	
</style>
<g>
	<path d="M46.73,0.24L6.19,0C2.93-0.02,0.26,2.6,0.24,5.87L0,43.32c-0.02,3.26,2.6,5.93,5.87,5.95l40.54,0.24
		c3.26,0.02,5.93-2.6,5.95-5.87L52.6,6.19C52.62,2.93,49.99,0.26,46.73,0.24z M44.01,26.58H28.12v15.89c0,1.01-0.82,1.83-1.83,1.83
		c-1.01,0-1.83-0.82-1.83-1.83V26.58H8.59c-1.01,0-1.83-0.82-1.83-1.83c0-1.01,0.82-1.83,1.83-1.83h15.89V7.05
		c0-1.01,0.82-1.83,1.83-1.83c1.01,0,1.83,0.82,1.83,1.83v15.89h15.89c1.01,0,1.83,0.82,1.83,1.83
		C45.84,25.76,45.02,26.58,44.01,26.58z"/>
</g>
</svg>
