<?xml version="1.0" encoding="utf-8"?>
<!-- Generator: Adobe Illustrator 27.7.0, SVG Export Plug-In . SVG Version: 6.00 Build 0)  -->
<svg version="1.1" id="Layer_1" xmlns="http://www.w3.org/2000/svg" xmlns:xlink="http://www.w3.org/1999/xlink" x="0px" y="0px"
	 viewBox="0 0 100 100" style="enable-background:new 0 0 100 100;" xml:space="preserve">
<g>
	<path d="M23.1,11.1c1.4-1.1,2.8-0.8,4.1-0.8c15.4,0,30.8,0,46.2,0c10.3,0,16.2,5.9,16.2,16.1c0,19.1,0,38.2,0,57.4
		c0,2.2,0.1,4.4-2.3,5.5c-2.4,1.1-3.8-0.6-5.3-1.9c-2.3-2-4.7-3.8-6.9-5.9c-1.4-1.3-2.4-1.2-3.7,0.1c-2.4,2.2-5,4.2-7.4,6.4
		c-2.3,2.2-4.5,2.1-6.8-0.1c-2.1-2-4.5-3.7-6.6-5.8c-1.7-1.7-3-2.2-5-0.2c-2,2.1-4.4,3.8-6.6,5.7c-1.5,1.3-2.9,2.6-5.1,1.5
		c-2.1-1-2.2-2.9-2.2-4.9c0-14.5,0-29,0-43.5c0-3.9,0-7.9,0-11.8C31.9,18.7,31.3,17.4,23.1,11.1z M60.5,46.5c3.5,0,7,0.1,10.5,0
		c2.4-0.1,4.2-1.1,4.1-3.9c-0.1-2.6-1.9-3.4-4.2-3.4c-6.6,0-13.3,0-19.9,0c-2.4,0-4.3,0.7-4.4,3.5c-0.1,3,2,3.8,4.5,3.8
		C54.2,46.6,57.4,46.5,60.5,46.5z M60.6,60.9c3.5,0,7,0,10.5,0c2.3,0,4-0.9,4-3.5c0.1-2.6-1.6-3.7-3.9-3.7c-6.9-0.1-13.7-0.1-20.6,0
		c-2.4,0-4.2,1.2-4,3.9c0.1,2.6,1.9,3.3,4.2,3.3C54,60.9,57.3,60.9,60.6,60.9z M60.8,32c3.5,0,7,0,10.4,0c2.4,0,3.9-1.1,3.8-3.6
		C75,26,73.5,25,71.3,25c-7,0-13.9,0-20.9,0c-2.4,0-3.9,1.1-3.8,3.6c0.1,2.4,1.5,3.3,3.8,3.4C53.8,32,57.3,32,60.8,32z"/>
	<path d="M24.9,37.7c0,4.4-0.1,8.8,0,13.1c0.1,2-0.4,2.9-2.6,2.8c-2.6-0.2-5.2-0.1-7.7,0c-2.8,0-4.2-1.4-4.3-4.1
		c-0.1-8.4-0.1-16.8,0-25.3c0.1-4.3,3.2-7.3,7.3-7.3c4,0,7.1,3,7.3,7.3C25,28.7,24.9,33.2,24.9,37.7z"/>
</g>
</svg>
